<?xml version="1.0" standalone="no"?><?xml-stylesheet type="text/css" href="https://www.processon.com/themes/default/mind/icons/icons.css" ?><!DOCTYPE svg PUBLIC "-//W3C//DTD SVG 1.1//EN" "http://www.w3.org/Graphics/SVG/1.1/DTD/svg11.dtd"><svg id="SvgjsSvg1161" xmlns="http://www.w3.org/2000/svg" version="1.1" xmlns:xlink="http://www.w3.org/1999/xlink" xmlns:svgjs="http://svgjs.com/svgjs" width="855" height="635.0104064941406"><g id="downloadwatermarkid"><defs><pattern patternUnits="userSpaceOnUse" id="pattern_mark_download" width="300" height="300"><text x="0" y="96" fill="rgb(229,229,229,0.8)" font-size="18" transform="rotate(-45, 150, 150)">物联大师</text></pattern></defs><rect fill="url(#pattern_mark_download)" x="0" y="0" width="855" height="635.0104064941406" id="rect_mark_download" pointer-events="none"></rect></g><rect fill="url(#pattern_mark)" transform="translate(-75.5,-17.65625)" width="1050" height="1500" id="rect_mark" pointer-events="none"></rect><defs id="SvgjsDefs1162"><linearGradient id="SvgjsLinearGradient1169" x1="0.5" y1="0" x2="0.5" y2="1"><stop id="SvgjsStop1170" stop-opacity="1" stop-color="#ffcdd2" offset="0"></stop><stop id="SvgjsStop1171" stop-opacity="1" stop-color="#e1bee7" offset="1"></stop></linearGradient><marker id="SvgjsMarker1178" markerWidth="14" markerHeight="10" refX="4" refY="5" viewBox="0 0 14 10" orient="auto" markerUnits="userSpaceOnUse" stroke-dasharray="0,0"><path id="SvgjsPath1179" d="M14 0L0 5L14 10L14 0 " fill="#323232" stroke="#323232" stroke-width="1"></path></marker><marker id="SvgjsMarker1180" markerWidth="14" markerHeight="10" refX="10" refY="5" viewBox="0 0 14 10" orient="auto" markerUnits="userSpaceOnUse" stroke-dasharray="0,0"><path id="SvgjsPath1181" d="M0 0L14 5L0 10L0 0 " fill="#323232" stroke="#323232" stroke-width="1"></path></marker><marker id="SvgjsMarker1234" markerWidth="14" markerHeight="10" refX="4" refY="5" viewBox="0 0 14 10" orient="auto" markerUnits="userSpaceOnUse" stroke-dasharray="0,0"><path id="SvgjsPath1235" d="M14 0L0 5L14 10L14 0 " fill="#323232" stroke="#323232" stroke-width="1"></path></marker><marker id="SvgjsMarker1236" markerWidth="14" markerHeight="10" refX="10" refY="5" viewBox="0 0 14 10" orient="auto" markerUnits="userSpaceOnUse" stroke-dasharray="0,0"><path id="SvgjsPath1237" d="M0 0L14 5L0 10L0 0 " fill="#323232" stroke="#323232" stroke-width="1"></path></marker><marker id="SvgjsMarker1289" markerWidth="14" markerHeight="10" refX="4" refY="5" viewBox="0 0 14 10" orient="auto" markerUnits="userSpaceOnUse" stroke-dasharray="0,0"><path id="SvgjsPath1290" d="M14 0L0 5L14 10L14 0 " fill="#323232" stroke="#323232" stroke-width="1"></path></marker><marker id="SvgjsMarker1291" markerWidth="14" markerHeight="10" refX="10" refY="5" viewBox="0 0 14 10" orient="auto" markerUnits="userSpaceOnUse" stroke-dasharray="0,0"><path id="SvgjsPath1292" d="M0 0L14 5L0 10L0 0 " fill="#323232" stroke="#323232" stroke-width="1"></path></marker><marker id="SvgjsMarker1295" markerWidth="14" markerHeight="10" refX="4" refY="5" viewBox="0 0 14 10" orient="auto" markerUnits="userSpaceOnUse" stroke-dasharray="0,0"><path id="SvgjsPath1296" d="M14 0L0 5L14 10L14 0 " fill="#323232" stroke="#323232" stroke-width="1"></path></marker><marker id="SvgjsMarker1297" markerWidth="14" markerHeight="10" refX="10" refY="5" viewBox="0 0 14 10" orient="auto" markerUnits="userSpaceOnUse" stroke-dasharray="0,0"><path id="SvgjsPath1298" d="M0 0L14 5L0 10L0 0 " fill="#323232" stroke="#323232" stroke-width="1"></path></marker><marker id="SvgjsMarker1301" markerWidth="14" markerHeight="10" refX="4" refY="5" viewBox="0 0 14 10" orient="auto" markerUnits="userSpaceOnUse" stroke-dasharray="0,0"><path id="SvgjsPath1302" d="M14 0L0 5L14 10L14 0 " fill="#323232" stroke="#323232" stroke-width="1"></path></marker><marker id="SvgjsMarker1303" markerWidth="14" markerHeight="10" refX="10" refY="5" viewBox="0 0 14 10" orient="auto" markerUnits="userSpaceOnUse" stroke-dasharray="0,0"><path id="SvgjsPath1304" d="M0 0L14 5L0 10L0 0 " fill="#323232" stroke="#323232" stroke-width="1"></path></marker><marker id="SvgjsMarker1307" markerWidth="14" markerHeight="10" refX="4" refY="5" viewBox="0 0 14 10" orient="auto" markerUnits="userSpaceOnUse" stroke-dasharray="0,0"><path id="SvgjsPath1308" d="M14 0L0 5L14 10L14 0 " fill="#323232" stroke="#323232" stroke-width="1"></path></marker><marker id="SvgjsMarker1309" markerWidth="14" markerHeight="10" refX="10" refY="5" viewBox="0 0 14 10" orient="auto" markerUnits="userSpaceOnUse" stroke-dasharray="0,0"><path id="SvgjsPath1310" d="M0 0L14 5L0 10L0 0 " fill="#323232" stroke="#323232" stroke-width="1"></path></marker><marker id="SvgjsMarker1313" markerWidth="14" markerHeight="10" refX="4" refY="5" viewBox="0 0 14 10" orient="auto" markerUnits="userSpaceOnUse" stroke-dasharray="0,0"><path id="SvgjsPath1314" d="M14 0L0 5L14 10L14 0 " fill="#323232" stroke="#323232" stroke-width="1"></path></marker><marker id="SvgjsMarker1315" markerWidth="14" markerHeight="10" refX="10" refY="5" viewBox="0 0 14 10" orient="auto" markerUnits="userSpaceOnUse" stroke-dasharray="0,0"><path id="SvgjsPath1316" d="M0 0L14 5L0 10L0 0 " fill="#323232" stroke="#323232" stroke-width="1"></path></marker><pattern patternUnits="userSpaceOnUse" id="pattern_mark" width="300" height="300"><text x="-50" y="150" fill="rgba(229,229,229,0.8)" font-size="18" transform="rotate(-45, 150, 150)"></text></pattern></defs><g id="SvgjsG1163" transform="translate(158,25.010406494140625)"><path id="SvgjsPath1164" d="M0 0L539 0L539 199.00000953674316L0 199.00000953674316Z " stroke-dasharray="10,6" stroke="rgba(50,50,50,1)" stroke-width="1" fill-opacity="1" fill="#b2ebf2"></path><g id="SvgjsG1165"><text id="SvgjsText1166" font-family="微软雅黑" text-anchor="middle" font-size="13px" width="519px" fill="#323232" font-weight="400" align="middle" lineheight="125%" font-style="" opacity="1" y="88.87500476837158" transform="rotate(0)"></text></g></g><g id="SvgjsG1167" transform="translate(25,298.0104064941406)"><path id="SvgjsPath1168" d="M0 4Q0 0 4 0L801 0Q805 0 805 4L805 41Q805 45 801 45L4 45Q0 45 0 41Z " stroke="rgba(50,50,50,1)" stroke-width="1" fill="url(#SvgjsLinearGradient1169)"></path><g id="SvgjsG1172"><text id="SvgjsText1173" font-family="微软雅黑" text-anchor="middle" font-size="13px" width="785px" fill="#323232" font-weight="400" align="middle" lineheight="125%" font-style="" opacity="1" y="11.875" transform="rotate(0)"><tspan id="SvgjsTspan1174" dy="16" x="402.5"><tspan id="SvgjsTspan1175" style="text-decoration:;">MQTT broker</tspan></tspan></text></g></g><g id="SvgjsG1176"><path id="SvgjsPath1177" d="M427.5 227.11041603088378L427.5 261.0104112625122L427.5 261.0104112625122L427.5 294.9104064941406 " stroke="#323232" stroke-width="2" fill="none" marker-start="url(#SvgjsMarker1178)" marker-end="url(#SvgjsMarker1180)"></path></g><g id="SvgjsG1182" transform="translate(25,429.0104064941406)"><path id="SvgjsPath1183" d="M0 0L407.5 0L407.5 181L0 181Z " stroke-dasharray="10,6" stroke="rgba(0,0,0,1)" stroke-width="1" fill-opacity="1" fill="#c8e6c9"></path><g id="SvgjsG1184"><text id="SvgjsText1185" font-family="微软雅黑" text-anchor="middle" font-size="13px" width="388px" fill="#323232" font-weight="400" align="middle" lineheight="125%" font-style="" opacity="1" y="79.875" transform="rotate(0)"></text></g></g><g id="SvgjsG1186" transform="translate(34.5,464.0104064941406)"><path id="SvgjsPath1187" d="M0 0L120 0L120 40L0 40Z " stroke="none" fill="none"></path><g id="SvgjsG1188"><text id="SvgjsText1189" font-family="微软雅黑" text-anchor="middle" font-size="20px" width="120px" fill="#323232" font-weight="400" align="middle" lineheight="125%" font-style="" opacity="1" y="2" transform="rotate(0)"><tspan id="SvgjsTspan1190" dy="25" x="60"><tspan id="SvgjsTspan1191" style="text-decoration:;">物联大师</tspan></tspan></text></g></g><g id="SvgjsG1192" transform="translate(174.5,56.010406494140625)"><path id="SvgjsPath1193" d="M0 0L149 0L149 43L0 43Z " stroke="none" fill="none"></path><g id="SvgjsG1194"><text id="SvgjsText1195" font-family="微软雅黑" text-anchor="middle" font-size="20px" width="149px" fill="#323232" font-weight="400" align="middle" lineheight="125%" font-style="" opacity="1" y="3.5" transform="rotate(0)"><tspan id="SvgjsTspan1196" dy="25" x="74.5"><tspan id="SvgjsTspan1197" style="text-decoration:;">边缘计算网关</tspan></tspan></text></g></g><g id="SvgjsG1198" transform="translate(211,135.01040649414062)"><path id="SvgjsPath1199" d="M0 4Q0 0 4 0L101 0Q105 0 105 4L105 40Q105 44 101 44L4 44Q0 44 0 40Z " stroke="rgba(50,50,50,1)" stroke-width="1" fill-opacity="1" fill="#ffffff"></path><g id="SvgjsG1200"><text id="SvgjsText1201" font-family="微软雅黑" text-anchor="middle" font-size="13px" width="85px" fill="#323232" font-weight="400" align="middle" lineheight="125%" font-style="" opacity="1" y="11.375" transform="rotate(0)"><tspan id="SvgjsTspan1202" dy="16" x="52.5"><tspan id="SvgjsTspan1203" style="text-decoration:;">数据轮询</tspan></tspan></text></g></g><g id="SvgjsG1204" transform="translate(375,135.01040649414062)"><path id="SvgjsPath1205" d="M0 4Q0 0 4 0L101 0Q105 0 105 4L105 40Q105 44 101 44L4 44Q0 44 0 40Z " stroke="rgba(50,50,50,1)" stroke-width="1" fill-opacity="1" fill="#ffffff"></path><g id="SvgjsG1206"><text id="SvgjsText1207" font-family="微软雅黑" text-anchor="middle" font-size="13px" width="85px" fill="#323232" font-weight="400" align="middle" lineheight="125%" font-style="" opacity="1" y="11.375" transform="rotate(0)"><tspan id="SvgjsTspan1208" dy="16" x="52.5"><tspan id="SvgjsTspan1209" style="text-decoration:;">数据检查</tspan></tspan></text></g></g><g id="SvgjsG1210" transform="translate(539,135.01040649414062)"><path id="SvgjsPath1211" d="M0 4Q0 0 4 0L101 0Q105 0 105 4L105 40Q105 44 101 44L4 44Q0 44 0 40Z " stroke="rgba(50,50,50,1)" stroke-width="1" fill-opacity="1" fill="#ffffff"></path><g id="SvgjsG1212"><text id="SvgjsText1213" font-family="微软雅黑" text-anchor="middle" font-size="13px" width="85px" fill="#323232" font-weight="400" align="middle" lineheight="125%" font-style="" opacity="1" y="11.375" transform="rotate(0)"><tspan id="SvgjsTspan1214" dy="16" x="52.5"><tspan id="SvgjsTspan1215" style="text-decoration:;">Lua脚本</tspan></tspan></text></g></g><g id="SvgjsG1216" transform="translate(375,62.010406494140625)"><path id="SvgjsPath1217" d="M0 4Q0 0 4 0L101 0Q105 0 105 4L105 40Q105 44 101 44L4 44Q0 44 0 40Z " stroke="rgba(50,50,50,1)" stroke-width="1" fill-opacity="1" fill="#ffffff"></path><g id="SvgjsG1218"><text id="SvgjsText1219" font-family="微软雅黑" text-anchor="middle" font-size="13px" width="85px" fill="#323232" font-weight="400" align="middle" lineheight="125%" font-style="" opacity="1" y="11.375" transform="rotate(0)"><tspan id="SvgjsTspan1220" dy="16" x="52.5"><tspan id="SvgjsTspan1221" style="text-decoration:;">串口、网口</tspan></tspan></text></g></g><g id="SvgjsG1222" transform="translate(539,62.010406494140625)"><path id="SvgjsPath1223" d="M0 4Q0 0 4 0L101 0Q105 0 105 4L105 40Q105 44 101 44L4 44Q0 44 0 40Z " stroke="rgba(50,50,50,1)" stroke-width="1" fill-opacity="1" fill="#ffffff"></path><g id="SvgjsG1224"><text id="SvgjsText1225" font-family="微软雅黑" text-anchor="middle" font-size="13px" width="85px" fill="#323232" font-weight="400" align="middle" lineheight="125%" font-style="" opacity="1" y="11.375" transform="rotate(0)"><tspan id="SvgjsTspan1226" dy="16" x="52.5"><tspan id="SvgjsTspan1227" style="text-decoration:;">协议栈</tspan></tspan></text></g></g><g id="SvgjsG1228" transform="translate(502,429.0104064941406)"><path id="SvgjsPath1229" d="M0 0L92.5 0L92.5 181L0 181Z " stroke-dasharray="10,6" stroke="rgba(50,50,50,1)" stroke-width="1" fill-opacity="1" fill="#fff9c4"></path><g id="SvgjsG1230"><text id="SvgjsText1231" font-family="微软雅黑" text-anchor="middle" font-size="13px" width="73px" fill="#323232" font-weight="400" align="middle" lineheight="125%" font-style="" opacity="1" y="79.875" transform="rotate(0)"></text></g></g><g id="SvgjsG1232"><path id="SvgjsPath1233" d="M228.75 344.11040649414065L228.75 385.0104064941406L228.75 385.0104064941406L228.75 425.9104064941406 " stroke="#323232" stroke-width="2" fill="none" marker-start="url(#SvgjsMarker1234)" marker-end="url(#SvgjsMarker1236)"></path></g><g id="SvgjsG1238" transform="translate(174.5,472.0104064941406)"><path id="SvgjsPath1239" d="M0 4Q0 0 4 0L101 0Q105 0 105 4L105 40Q105 44 101 44L4 44Q0 44 0 40Z " stroke="rgba(50,50,50,1)" stroke-width="1" fill-opacity="1" fill="#ffffff"></path><g id="SvgjsG1240"><text id="SvgjsText1241" font-family="微软雅黑" text-anchor="middle" font-size="13px" width="85px" fill="#323232" font-weight="400" align="middle" lineheight="125%" font-style="" opacity="1" y="11.375" transform="rotate(0)"><tspan id="SvgjsTspan1242" dy="16" x="52.5"><tspan id="SvgjsTspan1243" style="text-decoration:;">网关管理</tspan></tspan></text></g></g><g id="SvgjsG1244" transform="translate(299.5,472.0104064941406)"><path id="SvgjsPath1245" d="M0 4Q0 0 4 0L101 0Q105 0 105 4L105 40Q105 44 101 44L4 44Q0 44 0 40Z " stroke="rgba(50,50,50,1)" stroke-width="1" fill-opacity="1" fill="#ffffff"></path><g id="SvgjsG1246"><text id="SvgjsText1247" font-family="微软雅黑" text-anchor="middle" font-size="13px" width="85px" fill="#323232" font-weight="400" align="middle" lineheight="125%" font-style="" opacity="1" y="11.375" transform="rotate(0)"><tspan id="SvgjsTspan1248" dy="16" x="52.5"><tspan id="SvgjsTspan1249" style="text-decoration:;">设备管理</tspan></tspan></text></g></g><g id="SvgjsG1250" transform="translate(49.5,537.0104064941406)"><path id="SvgjsPath1251" d="M0 4Q0 0 4 0L101 0Q105 0 105 4L105 40Q105 44 101 44L4 44Q0 44 0 40Z " stroke="rgba(50,50,50,1)" stroke-width="1" fill-opacity="1" fill="#ffffff"></path><g id="SvgjsG1252"><text id="SvgjsText1253" font-family="微软雅黑" text-anchor="middle" font-size="13px" width="85px" fill="#323232" font-weight="400" align="middle" lineheight="125%" font-style="" opacity="1" y="11.375" transform="rotate(0)"><tspan id="SvgjsTspan1254" dy="16" x="52.5"><tspan id="SvgjsTspan1255" style="text-decoration:;">项目</tspan><tspan id="SvgjsTspan1256" style="text-decoration:;font-size: inherit;">管理</tspan></tspan></text></g></g><g id="SvgjsG1257" transform="translate(299.5,537.0104064941406)"><path id="SvgjsPath1258" d="M0 4Q0 0 4 0L101 0Q105 0 105 4L105 40Q105 44 101 44L4 44Q0 44 0 40Z " stroke="rgba(50,50,50,1)" stroke-width="1" fill-opacity="1" fill="#ffffff"></path><g id="SvgjsG1259"><text id="SvgjsText1260" font-family="微软雅黑" text-anchor="middle" font-size="13px" width="85px" fill="#323232" font-weight="400" align="middle" lineheight="125%" font-style="" opacity="1" y="11.375" transform="rotate(0)"><tspan id="SvgjsTspan1261" dy="16" x="52.5"><tspan id="SvgjsTspan1262" style="text-decoration:;">组态可视化</tspan></tspan></text></g></g><g id="SvgjsG1263" transform="translate(174.5,537.0104064941406)"><path id="SvgjsPath1264" d="M0 4Q0 0 4 0L101 0Q105 0 105 4L105 40Q105 44 101 44L4 44Q0 44 0 40Z " stroke="rgba(50,50,50,1)" stroke-width="1" fill-opacity="1" fill="#ffffff"></path><g id="SvgjsG1265"><text id="SvgjsText1266" font-family="微软雅黑" text-anchor="middle" font-size="13px" width="85px" fill="#323232" font-weight="400" align="middle" lineheight="125%" font-style="" opacity="1" y="11.375" transform="rotate(0)"><tspan id="SvgjsTspan1267" dy="16" x="52.5"><tspan id="SvgjsTspan1268" style="text-decoration:;">插件管理</tspan></tspan></text></g></g><g id="SvgjsG1269" transform="translate(515,496.0104064941406)"><path id="SvgjsPath1270" d="M0 0L67 0L67 41L0 41Z " stroke="none" fill="none"></path><g id="SvgjsG1271"><text id="SvgjsText1272" font-family="微软雅黑" text-anchor="middle" font-size="20px" width="67px" fill="#323232" font-weight="400" align="middle" lineheight="125%" font-style="" opacity="1" y="2.5" transform="rotate(0)"><tspan id="SvgjsTspan1273" dy="25" x="33.5"><tspan id="SvgjsTspan1274" style="text-decoration:;">插件1</tspan></tspan></text></g></g><g id="SvgjsG1275" transform="translate(630,429.0104064941406)"><path id="SvgjsPath1276" d="M0 0L38.5 0L38.5 181L0 181Z " stroke-dasharray="10,6" stroke="rgba(50,50,50,1)" stroke-width="1" fill-opacity="1" fill="#fff9c4"></path><g id="SvgjsG1277"><text id="SvgjsText1278" font-family="微软雅黑" text-anchor="middle" font-size="13px" width="19px" fill="#323232" font-weight="400" align="middle" lineheight="125%" font-style="" opacity="1" y="79.875" transform="rotate(0)"></text></g></g><g id="SvgjsG1279" transform="translate(704,429.0104064941406)"><path id="SvgjsPath1280" d="M0 0L38.5 0L38.5 181L0 181Z " stroke-dasharray="10,6" stroke="rgba(50,50,50,1)" stroke-width="1" fill-opacity="1" fill="#fff9c4"></path><g id="SvgjsG1281"><text id="SvgjsText1282" font-family="微软雅黑" text-anchor="middle" font-size="13px" width="19px" fill="#323232" font-weight="400" align="middle" lineheight="125%" font-style="" opacity="1" y="79.875" transform="rotate(0)"></text></g></g><g id="SvgjsG1283" transform="translate(778,429.0104064941406)"><path id="SvgjsPath1284" d="M0 0L38.5 0L38.5 181L0 181Z " stroke-dasharray="10,6" stroke="rgba(50,50,50,1)" stroke-width="1" fill-opacity="1" fill="#fff9c4"></path><g id="SvgjsG1285"><text id="SvgjsText1286" font-family="微软雅黑" text-anchor="middle" font-size="13px" width="19px" fill="#323232" font-weight="400" align="middle" lineheight="125%" font-style="" opacity="1" y="79.875" transform="rotate(0)"></text></g></g><g id="SvgjsG1287"><path id="SvgjsPath1288" d="M435.6 519.5104064941406L467.25 519.5104064941406L467.25 519.5104064941406L498.9 519.5104064941406 " stroke="#323232" stroke-width="2" fill="none" marker-start="url(#SvgjsMarker1289)" marker-end="url(#SvgjsMarker1291)"></path></g><g id="SvgjsG1293"><path id="SvgjsPath1294" d="M548.25 425.9104064941406L548.25 386.0104064941406L548.25 386.0104064941406L548.25 346.11040649414065 " stroke="#323232" stroke-width="2" fill="none" marker-start="url(#SvgjsMarker1295)" marker-end="url(#SvgjsMarker1297)"></path></g><g id="SvgjsG1299"><path id="SvgjsPath1300" d="M649.25 425.9104064941406L649.25 386.0104064941406L649.25 386.0104064941406L649.25 346.11040649414065 " stroke="#323232" stroke-width="2" fill="none" marker-start="url(#SvgjsMarker1301)" marker-end="url(#SvgjsMarker1303)"></path></g><g id="SvgjsG1305"><path id="SvgjsPath1306" d="M723.25 425.9104064941406L723.25 388.5104064941406L723.25 388.5104064941406L723.25 348.0104064941406 " stroke="#323232" stroke-width="2" fill="none" marker-start="url(#SvgjsMarker1307)" marker-end="url(#SvgjsMarker1309)"></path></g><g id="SvgjsG1311"><path id="SvgjsPath1312" d="M797.25 425.9104064941406L797.25 386.0104064941406L797.25 386.0104064941406L797.25 346.11040649414065 " stroke="#323232" stroke-width="2" fill="none" marker-start="url(#SvgjsMarker1313)" marker-end="url(#SvgjsMarker1315)"></path></g></svg>